# xmcd CD database file
#
# Track frame offsets:
#	150
#	11407
#	23902
#	35017
#	47340
#	59822
#	71047
#	82440
#	93607
#	103472
#	114027
#	127980
#	142347
#	153812
#	163227
#	174115
#	186895
#	199562
#	212000
#
# Disc length: 3013 seconds
#
# Revision: 0
# Processed by: cddbd v1.4PL0 Copyright (c) Steve Scherf et al.
# Submitted via: CDex 1.50beta9
#
DISCID=100bc313
DTITLE=Bo Diddley - The Best Blues
DYEAR=1900
DGENRE=Blues
TTITLE0=Bo Diddley 
TTITLE1=I'm A Man 
TTITLE2=Diddley Daddy 
TTITLE3=She's Fine, She's Mine 
TTITLE4=Pretty Thing 
TTITLE5=Diddy Wah Diddy 
TTITLE6=I'm Looking For A Woman 
TTITLE7=Who Do You Love 
TTITLE8=Hey! Bo Diddley 
TTITLE9=Mona (I Need You Baby) 
TTITLE10=Before You Acuse Me 
TTITLE11=Say Man 
TTITLE12=Bo's Guitar 
TTITLE13=Crackin' Up 
TTITLE14=I'm Sorry 
TTITLE15=Nursery Rhyme 
TTITLE16=The Story Of Bo Diddley 
TTITLE17=Road Runner 
TTITLE18=You Can't Judge The Book By Looking At The Cover
EXTD=
EXTT0=
EXTT1=
EXTT2=
EXTT3=
EXTT4=
EXTT5=
EXTT6=
EXTT7=
EXTT8=
EXTT9=
EXTT10=
EXTT11=
EXTT12=
EXTT13=
EXTT14=
EXTT15=
EXTT16=
EXTT17=
EXTT18=
PLAYORDER=
